# This file uses centimeters as units for non-parametric coordinates.

mtllib Road_1.mtl
g default
v -7.487542 -1.876539 2.416289
v 7.487542 -1.876539 2.416289
v -7.177971 -0.865462 2.416289
v 7.177971 -0.865462 2.416289
v -7.177971 -0.865462 -2.416288
v 7.177971 -0.865462 -2.416288
v -7.487542 -1.876539 -2.416288
v 7.487542 -1.876539 -2.416288
v 9.521658 0.366768 -2.416288
v 9.521658 0.366768 2.416289
v 8.717417 0.847067 -2.416288
v 8.717417 0.847067 2.416289
v -9.521658 0.366768 -2.416288
v -9.521658 0.366768 2.416289
v -8.717417 0.847067 2.416289
v -8.717417 0.847067 -2.416288
v 9.821879 3.368963 -2.416288
v 9.821879 3.368963 2.416289
v 8.891804 3.400815 -2.416288
v 8.891804 3.400815 2.416289
v -9.821879 3.368963 -2.416288
v -9.821879 3.368963 2.416289
v -8.891804 3.400815 2.416289
v -8.891804 3.400815 -2.416288
v 8.809037 6.680952 -2.416288
v 8.809037 6.680952 2.416289
v 8.364676 6.099478 -2.416288
v 8.364676 6.099478 2.416289
v -8.809037 6.680952 -2.416288
v -8.809037 6.680952 2.416289
v -8.364676 6.099478 2.416289
v -8.364676 6.099478 -2.416288
v 6.071968 8.748219 -2.416288
v 6.071968 8.748219 2.416289
v 6.071966 7.903008 -2.416288
v 6.071966 7.903008 2.416289
v -6.071968 8.748219 -2.416288
v -6.071968 8.748219 2.416289
v -6.071966 7.903008 2.416289
v -6.071966 7.903008 -2.416288
v -6.181073 -0.500000 15.000000
v 6.181073 -0.500000 15.000000
v -6.181073 -0.500000 -15.000000
v 6.181073 -0.500000 -15.000000
v -0.624160 -0.500000 15.000000
v -0.624160 -0.500000 -15.000000
v 0.624160 -0.500000 15.000000
v 0.624160 -0.500000 -15.000000
v -0.624160 -0.791480 15.000000
v -0.624160 -0.791480 -15.000000
v 0.624160 -0.791480 15.000000
v 0.624160 -0.791480 -15.000000
v -6.657233 -1.000542 15.000000
v 6.662175 -0.891266 15.000000
v -6.657233 -1.000542 -15.000000
v 6.662175 -0.891266 -15.000000
v -6.385800 -0.170243 15.000000
v -6.385800 -0.170243 -15.000000
v -6.657235 -0.127679 -15.000000
v -6.657235 -0.127679 15.000000
v 6.385800 -0.170243 15.000000
v 6.385800 -0.170243 -15.000000
v 6.662175 -0.127679 15.000000
v 6.662175 -0.127679 -15.000000
vt 0.375000 0.000000
vt 0.625000 0.000000
vt 0.625000 0.250000
vt 0.375000 0.250000
vt 0.625000 0.500000
vt 0.375000 0.500000
vt 0.625000 0.750000
vt 0.375000 0.750000
vt 0.625000 1.000000
vt 0.375000 1.000000
vt 0.875000 0.000000
vt 0.875000 0.000000
vt 0.625000 0.000000
vt 0.875000 0.250000
vt 0.875000 0.250000
vt 0.625000 0.250000
vt 0.125000 0.000000
vt 0.375000 0.000000
vt 0.125000 0.000000
vt 0.375000 0.250000
vt 0.125000 0.250000
vt 0.125000 0.250000
vt 0.875000 0.000000
vt 0.625000 0.000000
vt 0.875000 0.250000
vt 0.625000 0.250000
vt 0.375000 0.000000
vt 0.125000 0.000000
vt 0.375000 0.250000
vt 0.125000 0.250000
vt 0.875000 0.000000
vt 0.625000 0.000000
vt 0.875000 0.250000
vt 0.625000 0.250000
vt 0.375000 0.000000
vt 0.125000 0.000000
vt 0.375000 0.250000
vt 0.125000 0.250000
vt 0.875000 0.000000
vt 0.625000 0.000000
vt 0.875000 0.250000
vt 0.625000 0.250000
vt 0.375000 0.000000
vt 0.125000 0.000000
vt 0.375000 0.250000
vt 0.125000 0.250000
vt 0.375000 0.250000
vt 0.458333 0.250000
vt 0.458333 0.500000
vt 0.375000 0.500000
vt 0.458333 0.500000
vt 0.458333 0.250000
vt 0.541667 0.250000
vt 0.541667 0.500000
vt 0.541667 0.500000
vt 0.541667 0.250000
vt 0.625000 0.250000
vt 0.625000 0.500000
vt 0.000000 0.000000
vt 1.000000 0.000000
vt 1.000000 1.000000
vt 0.000000 1.000000
vt 0.000000 0.000000
vt 1.000000 0.000000
vt 1.000000 1.000000
vt 0.000000 1.000000
vt 0.000000 0.000000
vt 1.000000 0.000000
vt 1.000000 1.000000
vt 0.000000 1.000000
vt 0.000000 0.000000
vt 1.000000 0.000000
vt 1.000000 1.000000
vt 0.000000 1.000000
vn 0.000000 0.000000 1.000000
vn 0.000000 0.000000 1.000000
vn 0.000000 0.000000 1.000000
vn 0.000000 0.000000 1.000000
vn 0.000000 1.000000 0.000000
vn 0.000000 1.000000 0.000000
vn 0.000000 1.000000 0.000000
vn 0.000000 1.000000 0.000000
vn 0.000000 0.000000 -1.000000
vn 0.000000 0.000000 -1.000000
vn 0.000000 0.000000 -1.000000
vn 0.000000 0.000000 -1.000000
vn 0.000000 -1.000000 0.000000
vn 0.000000 -1.000000 0.000000
vn 0.000000 -1.000000 0.000000
vn 0.000000 -1.000000 0.000000
vn 0.740803 -0.671722 0.000000
vn 0.740803 -0.671722 0.000000
vn 0.740803 -0.671722 0.000000
vn 0.740803 -0.671722 0.000000
vn 0.000000 0.000000 -1.000000
vn 0.000000 0.000000 -1.000000
vn 0.000000 0.000000 -1.000000
vn 0.000000 0.000000 -1.000000
vn -0.743689 0.668525 0.000000
vn -0.743689 0.668525 0.000000
vn -0.743689 0.668525 0.000000
vn -0.743689 0.668525 0.000000
vn 0.000000 0.000000 1.000000
vn 0.000000 0.000000 1.000000
vn 0.000000 0.000000 1.000000
vn 0.000000 0.000000 1.000000
vn -0.740803 -0.671722 0.000000
vn -0.740803 -0.671722 0.000000
vn -0.740803 -0.671722 0.000000
vn -0.740803 -0.671722 0.000000
vn -0.000000 0.000000 1.000000
vn -0.000000 0.000000 1.000000
vn -0.000000 0.000000 1.000000
vn -0.000000 0.000000 1.000000
vn 0.743689 0.668525 0.000000
vn 0.743689 0.668525 0.000000
vn 0.743689 0.668525 0.000000
vn 0.743689 0.668525 0.000000
vn -0.000000 0.000000 -1.000000
vn -0.000000 0.000000 -1.000000
vn -0.000000 0.000000 -1.000000
vn -0.000000 0.000000 -1.000000
vn 0.995037 -0.099504 0.000000
vn 0.995037 -0.099504 0.000000
vn 0.995037 -0.099504 0.000000
vn 0.995037 -0.099504 0.000000
vn 0.000000 0.000000 -1.000000
vn 0.000000 0.000000 -1.000000
vn 0.000000 0.000000 -1.000000
vn 0.000000 0.000000 -1.000000
vn -0.997677 0.068128 0.000000
vn -0.997677 0.068128 0.000000
vn -0.997677 0.068128 0.000000
vn -0.997677 0.068128 0.000000
vn 0.000000 0.000000 1.000000
vn 0.000000 0.000000 1.000000
vn 0.000000 0.000000 1.000000
vn 0.000000 0.000000 1.000000
vn -0.995037 -0.099504 0.000000
vn -0.995037 -0.099504 0.000000
vn -0.995037 -0.099504 0.000000
vn -0.995037 -0.099504 0.000000
vn 0.000000 0.000000 1.000000
vn 0.000000 0.000000 1.000000
vn 0.000000 0.000000 1.000000
vn 0.000000 0.000000 1.000000
vn 0.997677 0.068128 0.000000
vn 0.997677 0.068128 0.000000
vn 0.997677 0.068128 0.000000
vn 0.997677 0.068128 0.000000
vn 0.000000 0.000000 -1.000000
vn 0.000000 0.000000 -1.000000
vn 0.000000 0.000000 -1.000000
vn 0.000000 0.000000 -1.000000
vn 0.956283 0.292442 0.000000
vn 0.956283 0.292442 0.000000
vn 0.956283 0.292442 0.000000
vn 0.956283 0.292442 0.000000
vn 0.000000 0.000000 -1.000000
vn 0.000000 0.000000 -1.000000
vn 0.000000 0.000000 -1.000000
vn 0.000000 0.000000 -1.000000
vn -0.981452 -0.191707 0.000000
vn -0.981452 -0.191707 0.000000
vn -0.981452 -0.191707 0.000000
vn -0.981452 -0.191707 0.000000
vn -0.000000 0.000000 1.000000
vn -0.000000 0.000000 1.000000
vn -0.000000 0.000000 1.000000
vn -0.000000 0.000000 1.000000
vn -0.956283 0.292442 0.000000
vn -0.956283 0.292442 0.000000
vn -0.956283 0.292442 0.000000
vn -0.956283 0.292442 0.000000
vn 0.000000 0.000000 1.000000
vn 0.000000 0.000000 1.000000
vn 0.000000 0.000000 1.000000
vn 0.000000 0.000000 1.000000
vn 0.981452 -0.191707 0.000000
vn 0.981452 -0.191707 0.000000
vn 0.981452 -0.191707 0.000000
vn 0.981452 -0.191707 0.000000
vn 0.000000 0.000000 -1.000000
vn 0.000000 0.000000 -1.000000
vn 0.000000 0.000000 -1.000000
vn 0.000000 0.000000 -1.000000
vn 0.602695 0.797971 0.000000
vn 0.602695 0.797971 0.000000
vn 0.602695 0.797971 0.000000
vn 0.602695 0.797971 0.000000
vn 0.000000 0.000000 -1.000000
vn 0.000000 0.000000 -1.000000
vn 0.000000 0.000000 -1.000000
vn 0.000000 0.000000 -1.000000
vn -0.618270 -0.785966 0.000000
vn -0.618270 -0.785966 0.000000
vn -0.618270 -0.785966 0.000000
vn -0.618270 -0.785966 0.000000
vn 0.000000 0.000000 1.000000
vn 0.000000 0.000000 1.000000
vn 0.000000 0.000000 1.000000
vn 0.000000 0.000000 1.000000
vn -0.602695 0.797971 0.000000
vn -0.602695 0.797971 0.000000
vn -0.602695 0.797971 0.000000
vn -0.602695 0.797971 0.000000
vn 0.000000 0.000000 1.000000
vn 0.000000 0.000000 1.000000
vn 0.000000 0.000000 1.000000
vn 0.000000 0.000000 1.000000
vn 0.618270 -0.785966 0.000000
vn 0.618270 -0.785966 0.000000
vn 0.618270 -0.785966 0.000000
vn 0.618270 -0.785966 0.000000
vn 0.000000 0.000000 -1.000000
vn 0.000000 0.000000 -1.000000
vn 0.000000 0.000000 -1.000000
vn 0.000000 0.000000 -1.000000
vn 0.000000 1.000000 0.000000
vn 0.000000 1.000000 0.000000
vn 0.000000 1.000000 0.000000
vn 0.000000 1.000000 0.000000
vn 0.000000 0.000000 -1.000000
vn 0.000000 0.000000 -1.000000
vn 0.000000 0.000000 -1.000000
vn 0.000000 0.000000 -1.000000
vn 0.000000 -1.000000 0.000000
vn 0.000000 -1.000000 0.000000
vn 0.000000 -1.000000 0.000000
vn 0.000000 -1.000000 0.000000
vn 0.000000 0.000000 1.000000
vn 0.000000 0.000000 1.000000
vn 0.000000 0.000000 1.000000
vn 0.000000 0.000000 1.000000
vn 0.000000 1.000000 0.000000
vn 0.000000 1.000000 0.000000
vn 0.000000 1.000000 0.000000
vn 0.000000 1.000000 0.000000
vn 0.000000 1.000000 -0.000000
vn 0.000000 1.000000 -0.000000
vn 0.000000 1.000000 -0.000000
vn 0.000000 1.000000 -0.000000
vn 0.000000 1.000000 0.000000
vn 0.000000 1.000000 0.000000
vn 0.000000 1.000000 0.000000
vn 0.000000 1.000000 0.000000
vn 1.000000 0.000000 0.000000
vn 1.000000 0.000000 0.000000
vn 1.000000 0.000000 0.000000
vn 1.000000 0.000000 0.000000
vn -1.000000 0.000000 0.000000
vn -1.000000 0.000000 0.000000
vn -1.000000 0.000000 0.000000
vn -1.000000 0.000000 0.000000
vn 0.154918 0.987927 0.000000
vn 0.154918 0.987927 0.000000
vn 0.154918 0.987927 0.000000
vn 0.154918 0.987927 0.000000
vn -0.152214 0.988348 0.000000
vn -0.152214 0.988348 0.000000
vn -0.152214 0.988348 0.000000
vn -0.152214 0.988348 0.000000
vn 0.849582 0.527457 0.000000
vn 0.849582 0.527457 0.000000
vn 0.849582 0.527457 0.000000
vn 0.849582 0.527457 0.000000
vn -1.000000 -0.000003 0.000000
vn -1.000000 -0.000003 0.000000
vn -1.000000 -0.000003 0.000000
vn -1.000000 -0.000003 0.000000
vn -0.849582 0.527457 0.000000
vn -0.849582 0.527457 0.000000
vn -0.849582 0.527457 0.000000
vn -0.849582 0.527457 0.000000
vn 1.000000 0.000000 0.000000
vn 1.000000 0.000000 0.000000
vn 1.000000 0.000000 0.000000
vn 1.000000 0.000000 0.000000
vn 0.008204 -0.999966 0.000000
vn 0.008204 -0.999966 0.000000
vn 0.008204 -0.999966 0.000000
vn 0.008204 -0.999966 0.000000
vn -0.000000 0.000000 -1.000000
vn -0.000000 0.000000 -1.000000
vn -0.000000 0.000000 -1.000000
vn -0.000000 0.000000 -1.000000
vn -0.000000 0.000000 -1.000000
vn -0.000000 0.000000 -1.000000
vn -0.000000 0.000000 -1.000000
vn -0.000000 0.000000 -1.000000
vn -0.000000 0.000000 -1.000000
vn -0.000000 0.000000 -1.000000
vn -0.000000 0.000000 -1.000000
vn -0.000000 0.000000 -1.000000
s off
g polySurface1
usemtl initialShadingGroup
f 1/1/1 2/2/2 4/3/3 3/4/4
f 3/4/5 4/3/6 6/5/7 5/6/8
f 5/6/9 6/5/10 8/7/11 7/8/12
f 7/8/13 8/7/14 2/9/15 1/10/16
f 2/2/17 8/11/18 9/12/19 10/13/20
f 8/11/21 6/14/22 11/15/23 9/12/24
f 6/14/25 4/3/26 12/16/27 11/15/28
f 4/3/29 2/2/30 10/13/31 12/16/32
f 7/17/33 1/1/34 14/18/35 13/19/36
f 1/1/37 3/4/38 15/20/39 14/18/40
f 3/4/41 5/21/42 16/22/43 15/20/44
f 5/21/45 7/17/46 13/19/47 16/22/48
f 10/13/49 9/12/50 17/23/51 18/24/52
f 9/12/53 11/15/54 19/25/55 17/23/56
f 11/15/57 12/16/58 20/26/59 19/25/60
f 12/16/61 10/13/62 18/24/63 20/26/64
f 13/19/65 14/18/66 22/27/67 21/28/68
f 14/18/69 15/20/70 23/29/71 22/27/72
f 15/20/73 16/22/74 24/30/75 23/29/76
f 16/22/77 13/19/78 21/28/79 24/30/80
f 18/24/81 17/23/82 25/31/83 26/32/84
f 17/23/85 19/25/86 27/33/87 25/31/88
f 19/25/89 20/26/90 28/34/91 27/33/92
f 20/26/93 18/24/94 26/32/95 28/34/96
f 21/28/97 22/27/98 30/35/99 29/36/100
f 22/27/101 23/29/102 31/37/103 30/35/104
f 23/29/105 24/30/106 32/38/107 31/37/108
f 24/30/109 21/28/110 29/36/111 32/38/112
f 26/32/113 25/31/114 33/39/115 34/40/116
f 25/31/117 27/33/118 35/41/119 33/39/120
f 27/33/121 28/34/122 36/42/123 35/41/124
f 28/34/125 26/32/126 34/40/127 36/42/128
f 29/36/129 30/35/130 38/43/131 37/44/132
f 30/35/133 31/37/134 39/45/135 38/43/136
f 31/37/137 32/38/138 40/46/139 39/45/140
f 32/38/141 29/36/142 37/44/143 40/46/144
f 34/40/145 33/39/146 37/44/147 38/43/148
f 33/39/149 35/41/150 40/46/151 37/44/152
f 35/41/153 36/42/154 39/45/155 40/46/156
f 36/42/157 34/40/158 38/43/159 39/45/160
f 41/47/161 45/48/162 46/49/163 43/50/164
f 50/51/165 49/52/166 51/53/167 52/54/168
f 48/55/169 47/56/170 42/57/171 44/58/172
f 46/49/173 45/48/174 49/52/175 50/51/176
f 47/56/177 48/55/178 52/54/179 51/53/180
f 57/59/181 58/60/182 59/61/183 60/62/184
f 62/63/185 61/64/186 63/65/187 64/66/188
f 41/67/189 43/68/190 58/60/191 57/59/192
f 55/69/193 53/70/194 60/62/195 59/61/196
f 44/71/197 42/72/198 61/64/199 62/63/200
f 54/73/201 56/74/202 64/66/203 63/65/204
f 53/70/205 55/69/206 56/74/207 54/73/208
f 46/49/209 50/51/210 52/54/211 48/55/212 44/71/213 62/63/214 64/66/215 56/74/216 55/69/217 59/61/218 58/60/219 43/50/220
